# xmcd CD database file
#
# Track frame offsets:
#	150
#	20485
#	39988
#	58388
#	76458
#	98058
#	117313
#	138243
#	161993
#	173535
#	192110
#	211538
#	229810
#	248718
#	267038
#	285928
#	305693
#
# Disc length: 4434 seconds
#
# Revision: 0
# Processed by: cddbd v1.5.2PL0 Copyright (c) Steve Scherf et al.
# Submitted via: CD2WAV32(JP) R3.22
#
DISCID=df115011
DTITLE=TOKIO - Harvest
DYEAR=2006
DGENRE=Acapella
TTITLE0=Cadence
TTITLE1=明日を目指して！
TTITLE2=Get Your Dream
TTITLE3=宙船（そらふね）
TTITLE4=undid
TTITLE5=The One To Me
TTITLE6=Your Answer
TTITLE7=僕の恋愛事情と台所事情
TTITLE8=Happy Birthday
TTITLE9=Mr.Traveling Man
TTITLE10=うたにしちゃいました！
TTITLE11=グルメファイター！
TTITLE12=No More Bet
TTITLE13=Starving Man
TTITLE14=Sonic Drive!
TTITLE15=do! do! do!
TTITLE16=イメージ
EXTD=
EXTT0=
EXTT1=
EXTT2=
EXTT3=
EXTT4=
EXTT5=
EXTT6=
EXTT7=
EXTT8=
EXTT9=
EXTT10=
EXTT11=
EXTT12=
EXTT13=
EXTT14=
EXTT15=
EXTT16=
PLAYORDER=
